<svg width="48" height="48" viewBox="0 0 48 48" fill="none" xmlns="http://www.w3.org/2000/svg"><g clip-path="url(#clip0_2871_7094)"><path d="M47.9672 19.4316C47.9127 18.6193 47.2911 17.9695 46.4694 17.8636C45.7786 17.7745 44.9852 18.2672 44.7598 18.9767C44.6665 19.2681 44.6477 19.5941 44.6477 19.9044C44.6403 23.967 44.6435 28.0286 44.6435 32.0912V32.7159C44.6068 32.7337 44.5701 32.7515 44.5345 32.7693C44.3196 32.5272 44.1026 32.2872 43.8888 32.043C41.1112 28.8671 38.3399 25.6849 35.5539 22.5174C32.8759 19.4725 28.5156 19.482 25.8355 22.53C23.9017 24.729 21.9762 26.9374 20.0466 29.1407C19.9281 29.2759 19.8023 29.4058 19.6629 29.5557C18.9324 28.6711 18.2584 27.8263 17.553 27.0087C14.9903 24.0425 10.5902 24.0718 8.07565 27.0706C6.60824 28.821 5.1555 30.5829 3.70172 32.3438C3.61891 32.4434 3.58642 32.5849 3.53087 32.7065C3.47951 32.6603 3.4292 32.6153 3.37784 32.5691C3.37155 32.4486 3.36002 32.3281 3.36002 32.2086C3.36002 25.0256 3.35583 17.8426 3.36736 10.6597C3.36736 10.0895 3.42501 9.50567 3.55498 8.95225C4.34319 5.6076 7.20568 3.36561 10.7096 3.35827C16.4818 3.34465 22.255 3.35618 28.0272 3.35094C28.3217 3.35094 28.6257 3.34255 28.9076 3.27233C29.9327 3.01448 30.4453 1.82693 29.9411 0.898268C29.5774 0.227452 28.9883 -0.00104456 28.2431 3.58703e-06C22.4007 0.0104851 16.5583 0.00419618 10.717 0.00838878C10.282 0.00838878 9.84178 0.00838879 9.41099 0.0639407C3.93126 0.764104 0.0310993 5.13803 0.0164252 10.6628C-0.00663411 19.5721 -0.00873041 28.4814 0.0143289 37.3906C0.0300511 43.232 4.59474 47.913 10.4225 47.9528C19.4554 48.0147 28.4894 48.0168 37.5234 47.9539C43.4119 47.913 47.963 43.21 47.9714 37.3204C47.9797 31.4801 47.9734 25.6388 47.9734 19.7985C47.9734 19.6769 47.9755 19.5543 47.9682 19.4327L47.9672 19.4316ZM44.4475 38.2323C43.9601 41.9899 40.9802 44.6155 37.1911 44.6239C32.7784 44.6344 28.3657 44.626 23.9541 44.626C19.5414 44.626 15.1286 44.6375 10.717 44.6229C6.95832 44.6103 4.00883 42.0591 3.45436 38.3497C3.42081 38.1285 3.50676 37.8267 3.64826 37.6527C5.92589 34.8531 8.21086 32.0597 10.5168 29.2843C11.7201 27.8368 13.7713 27.8451 14.9871 29.2822C16.0342 30.52 17.0593 31.7757 18.096 33.023C18.9837 34.09 20.056 34.111 20.9731 33.0628C23.3849 30.3083 25.7957 27.5527 28.1949 24.7866C28.8175 24.0687 29.5386 23.5844 30.5186 23.5603C31.4934 23.5362 32.2659 23.9293 32.9011 24.6525C36.0853 28.2833 39.2759 31.9099 42.4644 35.5375C43.0629 36.2188 43.6739 36.8886 44.2494 37.5887C44.3825 37.7512 44.4737 38.0258 44.4475 38.2313V38.2323Z" fill="#192F72"/><path d="M33.0487 10.0452C34.3211 10.061 35.5936 10.0494 36.8661 10.0494C37.2099 10.0494 37.5526 10.0494 37.9477 10.0494C37.9477 10.2999 37.9477 10.4865 37.9477 10.6741C37.9477 12.0682 37.9268 13.4633 37.9614 14.8563C37.9708 15.2388 38.0746 15.6612 38.2643 15.9893C38.6311 16.6213 39.3879 16.8603 40.087 16.6675C40.7736 16.4777 41.2746 15.873 41.2851 15.1319C41.306 13.6331 41.2945 12.1342 41.2966 10.6354C41.2966 10.453 41.2966 10.2695 41.2966 10.0484C41.5733 10.0484 41.763 10.0484 41.9527 10.0484C43.3646 10.0484 44.7764 10.0578 46.1883 10.0452C47.2626 10.0358 47.9932 9.33879 47.9901 8.35877C47.9869 7.37561 47.2626 6.70794 46.1726 6.7027C44.7429 6.69536 43.3132 6.7027 41.8846 6.69955C41.7012 6.69955 41.5167 6.68173 41.2976 6.6702C41.2976 6.40293 41.2976 6.19644 41.2976 5.98996C41.2955 4.52569 41.3113 3.06143 41.2861 1.59821C41.2714 0.736631 40.6038 0.0710565 39.7768 0.0144564C38.8827 -0.0463362 38.1658 0.48822 37.9991 1.35923C37.954 1.59611 37.9509 1.84348 37.9509 2.08665C37.9467 3.60018 37.9488 5.11475 37.9488 6.7006C36.2592 6.7006 34.6587 6.69431 33.0581 6.7027C32.0131 6.70794 31.2794 7.38295 31.2564 8.33362C31.2333 9.28115 32.0037 10.0316 33.0497 10.0442L33.0487 10.0452Z" fill="#192F72"/><path d="M6.71297 12.8309C6.72974 16.251 9.46541 18.9783 12.8667 18.9646C16.2616 18.951 18.9952 16.1839 18.9774 12.7785C18.9595 9.39188 16.1778 6.67298 12.7629 6.70338C9.40986 6.73273 6.6962 9.48097 6.71297 12.8309ZM15.6296 12.8801C15.6086 14.3905 14.3508 15.62 12.8321 15.6168C11.285 15.6126 10.0566 14.3653 10.066 12.8078C10.0765 11.2492 11.306 10.0449 12.8792 10.0533C14.4179 10.0627 15.6516 11.3299 15.6296 12.8801Z" fill="#192F72"/></g><defs><clipPath id="clip0_2871_7094"><rect width="47.9895" height="48" fill="white"/></clipPath></defs></svg>
