<svg width="32" height="32" viewBox="0 0 32 32" fill="none" xmlns="http://www.w3.org/2000/svg"><rect x="1" y="1" width="30" height="30" rx="15" fill="white"/><rect x="1" y="1" width="30" height="30" rx="15" stroke="#EA4900" stroke-width="2"/>
<path d="M16.9792 20.1663H17.6042C17.687 20.1663 17.7665 20.1334 17.8251 20.0748C17.8837 20.0162 17.9167 19.9367 17.9167 19.8538V14.2288C17.9167 14.146 17.8837 14.0665 17.8251 14.0079C17.7665 13.9493 17.687 13.9163 17.6042 13.9163H16.9792C16.8963 13.9163 16.8168 13.9493 16.7582 14.0079C16.6996 14.0665 16.6667 14.146 16.6667 14.2288V19.8538C16.6667 19.9367 16.6996 20.0162 16.7582 20.0748C16.8168 20.1334 16.8963 20.1663 16.9792 20.1663ZM21.25 11.4163H19.1042L18.2188 9.93978C18.1076 9.75455 17.9503 9.60129 17.7623 9.49495C17.5742 9.38861 17.3619 9.33282 17.1458 9.33301H14.5208C14.3048 9.33282 14.0924 9.38861 13.9044 9.49495C13.7163 9.60129 13.5591 9.75455 13.4479 9.93978L12.5625 11.4163H10.4167C10.3062 11.4163 10.2002 11.4602 10.122 11.5384C10.0439 11.6165 10 11.7225 10 11.833V12.2497C10 12.3602 10.0439 12.4662 10.122 12.5443C10.2002 12.6224 10.3062 12.6663 10.4167 12.6663H10.8333V21.4163C10.8333 21.7479 10.965 22.0658 11.1994 22.3002C11.4339 22.5346 11.7518 22.6663 12.0833 22.6663H19.5833C19.9149 22.6663 20.2328 22.5346 20.4672 22.3002C20.7016 22.0658 20.8333 21.7479 20.8333 21.4163V12.6663H21.25C21.3605 12.6663 21.4665 12.6224 21.5446 12.5443C21.6228 12.4662 21.6667 12.3602 21.6667 12.2497V11.833C21.6667 11.7225 21.6228 11.6165 21.5446 11.5384C21.4665 11.4602 21.3605 11.4163 21.25 11.4163ZM14.474 10.6585C14.488 10.6352 14.5079 10.616 14.5316 10.6028C14.5554 10.5895 14.5822 10.5827 14.6094 10.583H17.0573C17.0845 10.5827 17.1113 10.5895 17.135 10.6028C17.1588 10.616 17.1787 10.6352 17.1927 10.6585L17.6458 11.4163H14.0208L14.474 10.6585ZM19.5833 21.4163H12.0833V12.6663H19.5833V21.4163ZM14.0625 20.1663H14.6875C14.7704 20.1663 14.8499 20.1334 14.9085 20.0748C14.9671 20.0162 15 19.9367 15 19.8538V14.2288C15 14.146 14.9671 14.0665 14.9085 14.0079C14.8499 13.9493 14.7704 13.9163 14.6875 13.9163H14.0625C13.9796 13.9163 13.9001 13.9493 13.8415 14.0079C13.7829 14.0665 13.75 14.146 13.75 14.2288V19.8538C13.75 19.9367 13.7829 20.0162 13.8415 20.0748C13.9001 20.1334 13.9796 20.1663 14.0625 20.1663Z" fill="#EA4900"/></svg>
