<svg width="24" height="24" viewBox="0 0 24 24" fill="none" xmlns="http://www.w3.org/2000/svg">
<path fill-rule="evenodd" clip-rule="evenodd" d="M12.003 6.68359C12.3896 6.68359 12.703 6.99699 12.703 7.38359V16.6144C12.703 17.001 12.3896 17.3144 12.003 17.3144C11.6164 17.3144 11.303 17.001 11.303 16.6144V7.38359C11.303 6.99699 11.6164 6.68359 12.003 6.68359Z" fill="#EA4900"/>
<path fill-rule="evenodd" clip-rule="evenodd" d="M6.68628 12.0008C6.68628 11.6142 6.99968 11.3008 7.38628 11.3008H16.617C17.0036 11.3008 17.317 11.6142 17.317 12.0008C17.317 12.3874 17.0036 12.7008 16.617 12.7008H7.38628C6.99968 12.7008 6.68628 12.3874 6.68628 12.0008Z" fill="#EA4900"/>
<path fill-rule="evenodd" clip-rule="evenodd" d="M6.96765 3.30841C4.94671 3.30841 3.30841 4.94671 3.30841 6.96765V17.0323C3.30841 19.0533 4.94671 20.6916 6.96765 20.6916H17.0323C19.0533 20.6916 20.6916 19.0533 20.6916 17.0323V6.96765C20.6916 4.94671 19.0533 3.30841 17.0323 3.30841H6.96765ZM2 6.96765C2 4.22409 4.22409 2 6.96765 2H17.0323C19.7759 2 22 4.22409 22 6.96765V17.0323C22 19.7759 19.7759 22 17.0323 22H6.96765C4.22409 22 2 19.7759 2 17.0323V6.96765Z" fill="#EA4900"/>
</svg>
